TITLE ""
FILE "Step1_Track17.mp3" MP3
  TRACK 01 AUDIO
    TITLE "Step1_Track17_01"
    INDEX 01 00:00:00
  TRACK 02 AUDIO
    TITLE "Step1_Track17_02"
    INDEX 01 00:00:22
  TRACK 03 AUDIO
    TITLE "Step1_Track17_03"
    INDEX 01 00:02:03
  TRACK 04 AUDIO
    TITLE "Step1_Track17_04"
    INDEX 01 00:02:60
  TRACK 05 AUDIO
    TITLE "Step1_Track17_05"
    INDEX 01 00:03:54
  TRACK 06 AUDIO
    TITLE "Step1_Track17_06"
    INDEX 01 00:03:62
  TRACK 07 AUDIO
    TITLE "Step1_Track17_07"
    INDEX 01 00:05:57
  TRACK 08 AUDIO
    TITLE "Step1_Track17_08"
    INDEX 01 00:06:03
  TRACK 09 AUDIO
    TITLE "Step1_Track17_09"
    INDEX 01 00:07:01
  TRACK 10 AUDIO
    TITLE "Step1_Track17_10"
    INDEX 01 00:07:03
  TRACK 11 AUDIO
    TITLE "Step1_Track17_11"
    INDEX 01 00:08:43
  TRACK 12 AUDIO
    TITLE "Step1_Track17_12"
    INDEX 01 00:09:11
  TRACK 13 AUDIO
    TITLE "Step1_Track17_13"
    INDEX 01 00:10:15
  TRACK 14 AUDIO
    TITLE "Step1_Track17_14"
    INDEX 01 00:10:17
  TRACK 15 AUDIO
    TITLE "Step1_Track17_15"
    INDEX 01 00:12:47
  TRACK 16 AUDIO
    TITLE "Step1_Track17_16"
    INDEX 01 00:12:70
  TRACK 17 AUDIO
    TITLE "Step1_Track17_17"
    INDEX 01 00:14:01
  TRACK 18 AUDIO
    TITLE "Step1_Track17_18"
    INDEX 01 00:14:03
  TRACK 19 AUDIO
    TITLE "Step1_Track17_19"
    INDEX 01 00:16:11
  TRACK 20 AUDIO
    TITLE "Step1_Track17_20"
    INDEX 01 00:16:43
  TRACK 21 AUDIO
    TITLE "Step1_Track17_21"
    INDEX 01 00:17:48
  TRACK 22 AUDIO
    TITLE "Step1_Track17_22"
    INDEX 01 00:17:50
  TRACK 23 AUDIO
    TITLE "Step1_Track17_23"
    INDEX 01 00:20:46
  TRACK 24 AUDIO
    TITLE "Step1_Track17_24"
    INDEX 01 00:20:62
  TRACK 25 AUDIO
    TITLE "Step1_Track17_25"
    INDEX 01 00:21:69
  TRACK 26 AUDIO
    TITLE "Step1_Track17_26"
    INDEX 01 00:22:00
  TRACK 27 AUDIO
    TITLE "Step1_Track17_27"
    INDEX 01 00:23:54
  TRACK 28 AUDIO
    TITLE "Step1_Track17_28"
    INDEX 01 00:24:25
  TRACK 29 AUDIO
    TITLE "Step1_Track17_29"
    INDEX 01 00:25:28
  TRACK 30 AUDIO
    TITLE "Step1_Track17_30"
    INDEX 01 00:25:42
  TRACK 31 AUDIO
    TITLE "Step1_Track17_31"
    INDEX 01 00:27:50
  TRACK 32 AUDIO
    TITLE "Step1_Track17_32"
    INDEX 01 00:28:09
  TRACK 33 AUDIO
    TITLE "Step1_Track17_33"
    INDEX 01 00:29:00
  TRACK 34 AUDIO
    TITLE "Step1_Track17_34"
    INDEX 01 00:29:18
  TRACK 35 AUDIO
    TITLE "Step1_Track17_35"
    INDEX 01 00:31:09
  TRACK 36 AUDIO
    TITLE "Step1_Track17_36"
    INDEX 01 00:31:38
  TRACK 37 AUDIO
    TITLE "Step1_Track17_37"
    INDEX 01 00:32:42
  TRACK 38 AUDIO
    TITLE "Step1_Track17_38"
    INDEX 01 00:32:44
  TRACK 39 AUDIO
    TITLE "Step1_Track17_39"
    INDEX 01 00:34:52
  TRACK 40 AUDIO
    TITLE "Step1_Track17_40"
    INDEX 01 00:34:72
  TRACK 41 AUDIO
    TITLE "Step1_Track17_41"
    INDEX 01 00:35:73
  TRACK 42 AUDIO
    TITLE "Step1_Track17_42"
    INDEX 01 00:36:12
  TRACK 43 AUDIO
    TITLE "Step1_Track17_43"
    INDEX 01 00:38:68
